<svg width="12" height="11" viewBox="0 0 12 11" fill="none" xmlns="http://www.w3.org/2000/svg">
<path d="M11.5 6C11.7761 6 12 5.77614 12 5.5C12 5.22386 11.7761 5 11.5 5V6ZM0.5 5.5L0.146447 5.14645C-0.0488155 5.34171 -0.0488155 5.65829 0.146447 5.85355L0.5 5.5ZM5.85355 0.853553C6.04882 0.658291 6.04882 0.341709 5.85355 0.146447C5.65829 -0.0488155 5.34171 -0.0488155 5.14645 0.146447L5.85355 0.853553ZM5.14645 10.8536C5.34171 11.0488 5.65829 11.0488 5.85355 10.8536C6.04882 10.6583 6.04882 10.3417 5.85355 10.1464L5.14645 10.8536ZM11.5 5C11.4912 5 11.4824 5 11.4737 5C11.4649 5 11.4561 5 11.4473 5C11.4385 5 11.4297 5 11.4208 5C11.412 5 11.4032 5 11.3944 5C11.3855 5 11.3767 5 11.3679 5C11.359 5 11.3502 5 11.3413 5C11.3324 5 11.3236 5 11.3147 5C11.3058 5 11.2969 5 11.288 5C11.2791 5 11.2702 5 11.2613 5C11.2524 5 11.2435 5 11.2346 5C11.2257 5 11.2168 5 11.2078 5C11.1989 5 11.19 5 11.181 5C11.1721 5 11.1631 5 11.1541 5C11.1452 5 11.1362 5 11.1272 5C11.1183 5 11.1093 5 11.1003 5C11.0913 5 11.0823 5 11.0733 5C11.0643 5 11.0553 5 11.0463 5C11.0373 5 11.0283 5 11.0192 5C11.0102 5 11.0012 5 10.9921 5C10.9831 5 10.974 5 10.965 5C10.9559 5 10.9469 5 10.9378 5C10.9287 5 10.9197 5 10.9106 5C10.9015 5 10.8924 5 10.8833 5C10.8742 5 10.8651 5 10.856 5C10.8469 5 10.8378 5 10.8287 5C10.8196 5 10.8105 5 10.8013 5C10.7922 5 10.7831 5 10.7739 5C10.7648 5 10.7556 5 10.7465 5C10.7373 5 10.7282 5 10.719 5C10.7098 5 10.7007 5 10.6915 5C10.6823 5 10.6731 5 10.6639 5C10.6548 5 10.6456 5 10.6364 5C10.6272 5 10.618 5 10.6088 5C10.5995 5 10.5903 5 10.5811 5C10.5719 5 10.5627 5 10.5534 5C10.5442 5 10.535 5 10.5257 5C10.5165 5 10.5072 5 10.498 5C10.4887 5 10.4794 5 10.4702 5C10.4609 5 10.4516 5 10.4424 5C10.4331 5 10.4238 5 10.4145 5C10.4052 5 10.396 5 10.3867 5C10.3774 5 10.3681 5 10.3588 5C10.3494 5 10.3401 5 10.3308 5C10.3215 5 10.3122 5 10.3029 5C10.2935 5 10.2842 5 10.2749 5C10.2655 5 10.2562 5 10.2468 5C10.2375 5 10.2281 5 10.2188 5C10.2094 5 10.2001 5 10.1907 5C10.1814 5 10.172 5 10.1626 5C10.1532 5 10.1439 5 10.1345 5C10.1251 5 10.1157 5 10.1063 5C10.0969 5 10.0875 5 10.0781 5C10.0687 5 10.0593 5 10.0499 5C10.0405 5 10.0311 5 10.0217 5C10.0123 5 10.0028 5 9.99341 5C9.98398 5 9.97455 5 9.96512 5C9.95568 5 9.94624 5 9.9368 5C9.92736 5 9.91791 5 9.90846 5C9.89901 5 9.88955 5 9.8801 5C9.87064 5 9.86117 5 9.85171 5C9.84224 5 9.83277 5 9.8233 5C9.81382 5 9.80435 5 9.79486 5C9.78538 5 9.7759 5 9.76641 5C9.75692 5 9.74742 5 9.73793 5C9.72843 5 9.71893 5 9.70943 5C9.69992 5 9.69042 5 9.6809 5C9.67139 5 9.66188 5 9.65236 5C9.64284 5 9.63332 5 9.6238 5C9.61427 5 9.60474 5 9.59521 5C9.58568 5 9.57615 5 9.56661 5C9.55707 5 9.54753 5 9.53799 5C9.52844 5 9.51889 5 9.50934 5C9.49979 5 9.49024 5 9.48068 5C9.47112 5 9.46157 5 9.452 5C9.44244 5 9.43287 5 9.4233 5C9.41374 5 9.40416 5 9.39459 5C9.38501 5 9.37544 5 9.36586 5C9.35628 5 9.34669 5 9.33711 5C9.32752 5 9.31793 5 9.30834 5C9.29875 5 9.28916 5 9.27956 5C9.26996 5 9.26036 5 9.25076 5C9.24116 5 9.23156 5 9.22195 5C9.21234 5 9.20273 5 9.19312 5C9.18351 5 9.17389 5 9.16428 5C9.15466 5 9.14504 5 9.13542 5C9.1258 5 9.11618 5 9.10655 5C9.09693 5 9.0873 5 9.07767 5C9.06804 5 9.05841 5 9.04877 5C9.03914 5 9.0295 5 9.01986 5C9.01022 5 9.00058 5 8.99094 5C8.9813 5 8.97165 5 8.96201 5C8.95236 5 8.94271 5 8.93306 5C8.92341 5 8.91376 5 8.90411 5C8.89445 5 8.8848 5 8.87514 5C8.86548 5 8.85582 5 8.84616 5C8.8365 5 8.82684 5 8.81717 5C8.80751 5 8.79784 5 8.78818 5C8.77851 5 8.76884 5 8.75917 5C8.7495 5 8.73983 5 8.73016 5C8.72048 5 8.71081 5 8.70113 5C8.69146 5 8.68178 5 8.6721 5C8.66242 5 8.65274 5 8.64306 5C8.63338 5 8.6237 5 8.61402 5C8.60433 5 8.59465 5 8.58496 5C8.57528 5 8.56559 5 8.5559 5C8.54622 5 8.53653 5 8.52684 5C8.51715 5 8.50746 5 8.49777 5C8.48807 5 8.47838 5 8.46869 5C8.45899 5 8.4493 5 8.43961 5C8.42991 5 8.42022 5 8.41052 5C8.40082 5 8.39113 5 8.38143 5C8.37173 5 8.36203 5 8.35233 5C8.34263 5 8.33293 5 8.32323 5C8.31353 5 8.30383 5 8.29413 5C8.28443 5 8.27473 5 8.26503 5C8.25533 5 8.24562 5 8.23592 5C8.22622 5 8.21652 5 8.20681 5C8.19711 5 8.18741 5 8.1777 5C8.168 5 8.1583 5 8.14859 5C8.13889 5 8.12918 5 8.11948 5C8.10978 5 8.10007 5 8.09037 5C8.08066 5 8.07096 5 8.06125 5C8.05155 5 8.04185 5 8.03214 5C8.02244 5 8.01273 5 8.00303 5C7.99333 5 7.98362 5 7.97392 5C7.96422 5 7.95451 5 7.94481 5C7.93511 5 7.9254 5 7.9157 5C7.906 5 7.8963 5 7.8866 5C7.8769 5 7.86719 5 7.85749 5C7.84779 5 7.83809 5 7.82839 5C7.8187 5 7.809 5 7.7993 5C7.7896 5 7.7799 5 7.77021 5C7.76051 5 7.75081 5 7.74112 5C7.73142 5 7.72173 5 7.71203 5C7.70234 5 7.69265 5 7.68296 5C7.67326 5 7.66357 5 7.65388 5C7.64419 5 7.6345 5 7.62481 5C7.61513 5 7.60544 5 7.59575 5C7.58607 5 7.57638 5 7.5667 5C7.55701 5 7.54733 5 7.53765 5C7.52797 5 7.51829 5 7.50861 5C7.49893 5 7.48925 5 7.47957 5C7.46989 5 7.46022 5 7.45055 5C7.44087 5 7.4312 5 7.42153 5C7.41186 5 7.40219 5 7.39252 5C7.38285 5 7.37318 5 7.36352 5C7.35385 5 7.34419 5 7.33453 5C7.32487 5 7.31521 5 7.30555 5C7.29589 5 7.28623 5 7.27658 5C7.26692 5 7.25727 5 7.24762 5C7.23797 5 7.22832 5 7.21867 5C7.20902 5 7.19938 5 7.18973 5C7.18009 5 7.17045 5 7.16081 5C7.15117 5 7.14153 5 7.13189 5C7.12226 5 7.11262 5 7.10299 5C7.09336 5 7.08373 5 7.0741 5C7.06448 5 7.05485 5 7.04523 5C7.03561 5 7.02598 5 7.01637 5C7.00675 5 6.99713 5 6.98752 5C6.97791 5 6.9683 5 6.95869 5C6.94908 5 6.93947 5 6.92987 5C6.92027 5 6.91066 5 6.90107 5C6.89147 5 6.88187 5 6.87228 5C6.86269 5 6.8531 5 6.84351 5C6.83392 5 6.82434 5 6.81475 5C6.80517 5 6.79559 5 6.78601 5C6.77644 5 6.76686 5 6.75729 5C6.74772 5 6.73815 5 6.72859 5C6.71903 5 6.70946 5 6.6999 5C6.69035 5 6.68079 5 6.67124 5C6.66168 5 6.65213 5 6.64259 5C6.63304 5 6.6235 5 6.61396 5C6.60442 5 6.59488 5 6.58535 5C6.57581 5 6.56628 5 6.55676 5C6.54723 5 6.53771 5 6.52819 5C6.51867 5 6.50915 5 6.49964 5C6.49012 5 6.48061 5 6.47111 5C6.4616 5 6.4521 5 6.4426 5C6.4331 5 6.4236 5 6.41411 5C6.40462 5 6.39513 5 6.38565 5C6.37616 5 6.36668 5 6.35721 5C6.34773 5 6.33826 5 6.32879 5C6.31932 5 6.30985 5 6.30039 5C6.29093 5 6.28147 5 6.27202 5C6.26257 5 6.25312 5 6.24367 5C6.23422 5 6.22478 5 6.21535 5C6.20591 5 6.19648 5 6.18705 5C6.17762 5 6.16819 5 6.15877 5C6.14935 5 6.13994 5 6.13052 5C6.12111 5 6.1117 5 6.1023 5C6.0929 5 6.0835 5 6.0741 5C6.06471 5 6.05532 5 6.04593 5C6.03655 5 6.02717 5 6.01779 5C6.00841 5 5.99904 5 5.98968 5C5.98031 5 5.97095 5 5.96159 5C5.95223 5 5.94288 5 5.93353 5C5.92418 5 5.91484 5 5.9055 5C5.89616 5 5.88682 5 5.87749 5C5.86817 5 5.85884 5 5.84952 5C5.8402 5 5.83089 5 5.82158 5C5.81227 5 5.80296 5 5.79366 5C5.78437 5 5.77507 5 5.76578 5C5.75649 5 5.74721 5 5.73793 5C5.72865 5 5.71938 5 5.71011 5C5.70084 5 5.69158 5 5.68232 5C5.67306 5 5.66381 5 5.65456 5C5.64532 5 5.63607 5 5.62684 5C5.6176 5 5.60837 5 5.59915 5C5.58992 5 5.5807 5 5.57149 5C5.56227 5 5.55306 5 5.54386 5C5.53466 5 5.52546 5 5.51627 5C5.50708 5 5.49789 5 5.48871 5C5.47953 5 5.47036 5 5.46119 5C5.45202 5 5.44286 5 5.4337 5C5.42454 5 5.41539 5 5.40625 5C5.3971 5 5.38796 5 5.37883 5C5.3697 5 5.36057 5 5.35145 5C5.34233 5 5.33321 5 5.32411 5C5.315 5 5.3059 5 5.2968 5C5.2877 5 5.27861 5 5.26953 5C5.26045 5 5.25137 5 5.2423 5C5.23323 5 5.22416 5 5.2151 5C5.20604 5 5.19699 5 5.18795 5C5.1789 5 5.16986 5 5.16083 5C5.1518 5 5.14277 5 5.13375 5C5.12473 5 5.11572 5 5.10671 5C5.09771 5 5.08871 5 5.07972 5C5.07072 5 5.06174 5 5.05276 5C5.04378 5 5.03481 5 5.02584 5C5.01688 5 5.00792 5 4.99896 5C4.99001 5 4.98107 5 4.97213 5C4.96319 5 4.95426 5 4.94534 5C4.93641 5 4.9275 5 4.91859 5C4.90968 5 4.90077 5 4.89188 5C4.88298 5 4.8741 5 4.86521 5C4.85633 5 4.84746 5 4.83859 5C4.82973 5 4.82087 5 4.81202 5C4.80316 5 4.79432 5 4.78548 5C4.77664 5 4.76782 5 4.75899 5C4.75017 5 4.74136 5 4.73255 5C4.72374 5 4.71494 5 4.70615 5C4.69736 5 4.68857 5 4.6798 5C4.67102 5 4.66225 5 4.65349 5C4.64473 5 4.63598 5 4.62723 5C4.61848 5 4.60975 5 4.60102 5C4.59229 5 4.58356 5 4.57485 5C4.56613 5 4.55743 5 4.54873 5C4.54003 5 4.53134 5 4.52266 5C4.51398 5 4.5053 5 4.49664 5C4.48797 5 4.47931 5 4.47066 5C4.46201 5 4.45337 5 4.44474 5C4.4361 5 4.42748 5 4.41886 5C4.41025 5 4.40164 5 4.39304 5C4.38444 5 4.37585 5 4.36726 5C4.35868 5 4.3501 5 4.34154 5C4.33297 5 4.32441 5 4.31586 5C4.30731 5 4.29877 5 4.29024 5C4.28171 5 4.27319 5 4.26467 5C4.25616 5 4.24765 5 4.23915 5C4.23066 5 4.22217 5 4.21369 5C4.20521 5 4.19674 5 4.18827 5C4.17981 5 4.17136 5 4.16292 5C4.15447 5 4.14604 5 4.13761 5C4.12918 5 4.12077 5 4.11236 5C4.10395 5 4.09555 5 4.08716 5C4.07877 5 4.07039 5 4.06202 5C4.05365 5 4.04528 5 4.03693 5C4.02858 5 4.02023 5 4.0119 5C4.00356 5 3.99524 5 3.98692 5C3.97861 5 3.9703 5 3.962 5C3.95371 5 3.94542 5 3.93714 5C3.92886 5 3.9206 5 3.91234 5C3.90408 5 3.89583 5 3.88759 5C3.87935 5 3.87112 5 3.8629 5C3.85468 5 3.84647 5 3.83827 5C3.83007 5 3.82187 5 3.81369 5C3.80551 5 3.79734 5 3.78918 5C3.78102 5 3.77287 5 3.76472 5C3.75658 5 3.74845 5 3.74033 5C3.73221 5 3.7241 5 3.71599 5C3.70789 5 3.6998 5 3.69172 5C3.68364 5 3.67557 5 3.66751 5C3.65945 5 3.6514 5 3.64335 5C3.63531 5 3.62728 5 3.61926 5C3.61124 5 3.60324 5 3.59524 5C3.58724 5 3.57925 5 3.57127 5C3.56329 5 3.55532 5 3.54737 5C3.53941 5 3.53146 5 3.52353 5C3.51559 5 3.50767 5 3.49975 5C3.49184 5 3.48393 5 3.47604 5C3.46815 5 3.46026 5 3.45239 5C3.44452 5 3.43666 5 3.42881 5C3.42096 5 3.41312 5 3.40529 5C3.39746 5 3.38964 5 3.38184 5C3.37403 5 3.36624 5 3.35845 5C3.35067 5 3.34289 5 3.33513 5C3.32737 5 3.31962 5 3.31188 5C3.30414 5 3.29641 5 3.28869 5C3.28097 5 3.27327 5 3.26557 5C3.25788 5 3.25019 5 3.24252 5C3.23485 5 3.22719 5 3.21954 5C3.21189 5 3.20425 5 3.19662 5C3.18899 5 3.18138 5 3.17377 5C3.16617 5 3.15858 5 3.151 5C3.14342 5 3.13585 5 3.12829 5C3.12073 5 3.11319 5 3.10565 5C3.09812 5 3.0906 5 3.08309 5C3.07558 5 3.06808 5 3.06059 5C3.05311 5 3.04563 5 3.03817 5C3.03071 5 3.02325 5 3.01582 5C3.00838 5 3.00095 5 2.99354 5C2.98612 5 2.97872 5 2.97133 5C2.96394 5 2.95656 5 2.94919 5C2.94182 5 2.93447 5 2.92713 5C2.91979 5 2.91246 5 2.90514 5C2.89782 5 2.89052 5 2.88322 5C2.87593 5 2.86865 5 2.86138 5C2.85412 5 2.84686 5 2.83962 5C2.83237 5 2.82514 5 2.81793 5C2.81071 5 2.8035 5 2.79631 5C2.78912 5 2.78194 5 2.77477 5C2.7676 5 2.76045 5 2.75331 5C2.74617 5 2.73904 5 2.73192 5C2.7248 5 2.7177 5 2.71061 5C2.70352 5 2.69644 5 2.68938 5C2.68231 5 2.67526 5 2.66822 5C2.66118 5 2.65416 5 2.64714 5C2.64013 5 2.63313 5 2.62615 5C2.61916 5 2.61219 5 2.60523 5C2.59827 5 2.59132 5 2.58438 5C2.57745 5 2.57053 5 2.56362 5C2.55672 5 2.54982 5 2.54294 5C2.53606 5 2.5292 5 2.52234 5C2.51549 5 2.50865 5 2.50182 5C2.495 5 2.48818 5 2.48138 5C2.47458 5 2.4678 5 2.46103 5C2.45425 5 2.44749 5 2.44075 5C2.43401 5 2.42727 5 2.42056 5C2.41384 5 2.40714 5 2.40045 5C2.39376 5 2.38708 5 2.38042 5C2.37376 5 2.36711 5 2.36047 5C2.35384 5 2.34722 5 2.34061 5C2.33401 5 2.32742 5 2.32084 5C2.31426 5 2.3077 5 2.30115 5C2.2946 5 2.28806 5 2.28154 5C2.27502 5 2.26851 5 2.26202 5C2.25553 5 2.24905 5 2.24258 5C2.23612 5 2.22967 5 2.22323 5C2.2168 5 2.21038 5 2.20397 5C2.19756 5 2.19117 5 2.18479 5C2.17842 5 2.17205 5 2.16571 5C2.15936 5 2.15302 5 2.1467 5C2.14039 5 2.13408 5 2.12779 5C2.1215 5 2.11523 5 2.10897 5C2.10271 5 2.09646 5 2.09023 5C2.084 5 2.07778 5 2.07158 5C2.06538 5 2.0592 5 2.05303 5C2.04685 5 2.0407 5 2.03456 5C2.02842 5 2.02229 5 2.01618 5C2.01007 5 2.00397 5 1.99789 5C1.99181 5 1.98575 5 1.9797 5C1.97365 5 1.96761 5 1.96159 5C1.95557 5 1.94957 5 1.94358 5C1.93759 5 1.93162 5 1.92566 5C1.9197 5 1.91376 5 1.90783 5C1.90191 5 1.89599 5 1.8901 5C1.8842 5 1.87832 5 1.87246 5C1.86659 5 1.86074 5 1.85491 5C1.84907 5 1.84326 5 1.83745 5C1.83165 5 1.82587 5 1.8201 5C1.81432 5 1.80857 5 1.80283 5C1.79709 5 1.79137 5 1.78566 5C1.77995 5 1.77426 5 1.76859 5C1.76291 5 1.75725 5 1.75161 5C1.74597 5 1.74034 5 1.73473 5C1.72912 5 1.72352 5 1.71795 5C1.71237 5 1.7068 5 1.70126 5C1.69571 5 1.69018 5 1.68467 5C1.67915 5 1.67366 5 1.66818 5C1.6627 5 1.65723 5 1.65178 5C1.64633 5 1.6409 5 1.63549 5C1.63007 5 1.62467 5 1.61929 5C1.61391 5 1.60854 5 1.6032 5C1.59785 5 1.59251 5 1.5872 5C1.58188 5 1.57658 5 1.5713 5C1.56602 5 1.56076 5 1.55551 5C1.55026 5 1.54503 5 1.53981 5C1.5346 5 1.5294 5 1.52422 5C1.51904 5 1.51387 5 1.50873 5C1.50358 5 1.49845 5 1.49334 5C1.48822 5 1.48313 5 1.47805 5C1.47297 5 1.46791 5 1.46286 5C1.45782 5 1.45279 5 1.44778 5C1.44277 5 1.43778 5 1.43281 5C1.42783 5 1.42287 5 1.41793 5C1.41299 5 1.40807 5 1.40316 5C1.39826 5 1.39337 5 1.3885 5C1.38363 5 1.37877 5 1.37394 5C1.3691 5 1.36429 5 1.35949 5C1.35469 5 1.3499 5 1.34514 5C1.34037 5 1.33563 5 1.3309 5C1.32617 5 1.32145 5 1.31676 5C1.31207 5 1.30739 5 1.30273 5C1.29808 5 1.29343 5 1.28881 5C1.28419 5 1.27959 5 1.275 5C1.27041 5 1.26585 5 1.2613 5C1.25675 5 1.25221 5 1.2477 5C1.24319 5 1.23869 5 1.23421 5C1.22974 5 1.22528 5 1.22084 5C1.21639 5 1.21197 5 1.20757 5C1.20316 5 1.19878 5 1.19441 5C1.19004 5 1.18569 5 1.18136 5C1.17703 5 1.17272 5 1.16843 5C1.16413 5 1.15986 5 1.1556 5C1.15134 5 1.14711 5 1.14289 5C1.13867 5 1.13447 5 1.13029 5C1.1261 5 1.12194 5 1.1178 5C1.11365 5 1.10953 5 1.10542 5C1.10131 5 1.09723 5 1.09316 5C1.08909 5 1.08504 5 1.08101 5C1.07698 5 1.07296 5 1.06897 5C1.06498 5 1.061 5 1.05705 5C1.05309 5 1.04916 5 1.04524 5C1.04133 5 1.03743 5 1.03355 5C1.02967 5 1.02581 5 1.02197 5C1.01813 5 1.01431 5 1.01051 5C1.00671 5 1.00293 5 0.999169 5C0.995407 5 0.991665 5 0.987941 5C0.984218 5 0.980515 5 0.976831 5C0.973147 5 0.969482 5 0.965837 5C0.962192 5 0.958567 5 0.954961 5C0.951356 5 0.94777 5 0.944204 5C0.940637 5 0.937091 5 0.933564 5C0.930038 5 0.926531 5 0.923044 5C0.919557 5 0.91609 5 0.912643 5C0.909196 5 0.905769 5 0.902362 5C0.898954 5 0.895567 5 0.8922 5C0.888833 5 0.885486 5 0.882159 5C0.878832 5 0.875525 5 0.872239 5C0.868952 5 0.865686 5 0.86244 5C0.859194 5 0.855968 5 0.852762 5C0.849557 5 0.846371 5 0.843206 5C0.840042 5 0.836897 5 0.833773 5C0.830649 5 0.827545 5 0.824462 5C0.821379 5 0.818317 5 0.815275 5C0.812233 5 0.809211 5 0.80621 5C0.80321 5 0.80023 5 0.79727 5C0.794311 5 0.791372 5 0.788454 5C0.785536 5 0.782639 5 0.779762 5C0.776886 5 0.77403 5 0.771196 5C0.768361 5 0.765547 5 0.762754 5C0.759961 5 0.75719 5 0.754439 5C0.751688 5 0.748958 5 0.746249 5C0.743541 5 0.740853 5 0.738186 5C0.73552 5 0.732874 5 0.73025 5C0.727626 5 0.725023 5 0.722441 5C0.71986 5 0.717299 5 0.71476 5C0.712221 5 0.709703 5 0.707207 5C0.704711 5 0.702236 5 0.699782 5C0.697329 5 0.694897 5 0.692486 5C0.690076 5 0.687687 5 0.685319 5C0.682952 5 0.680606 5 0.678282 5C0.675958 5 0.673655 5 0.671374 5C0.669094 5 0.666835 5 0.664597 5C0.66236 5 0.660145 5 0.657951 5C0.655757 5 0.653585 5 0.651435 5C0.649286 5 0.647158 5 0.645052 5C0.642946 5 0.640861 5 0.638799 5C0.636737 5 0.634697 5 0.63268 5C0.630662 5 0.628666 5 0.626692 5C0.624719 5 0.622767 5 0.620838 5C0.618909 5 0.617002 5 0.615117 5C0.613232 5 0.61137 5 0.60953 5C0.60769 5 0.605872 5 0.604076 5C0.602281 5 0.600508 5 0.598758 5C0.597007 5 0.595279 5 0.593574 5C0.591869 5 0.590186 5 0.588525 5C0.586865 5 0.585228 5 0.583613 5C0.581998 5 0.580405 5 0.578836 5C0.577266 5 0.575719 5 0.574195 5C0.572671 5 0.57117 5 0.569692 5C0.568213 5 0.566758 5 0.565325 5C0.563892 5 0.562483 5 0.561096 5C0.559709 5 0.558346 5 0.557005 5C0.555664 5 0.554347 5 0.553052 5C0.551758 5 0.550486 5 0.549238 5C0.54799 5 0.546765 5 0.545563 5C0.544361 5 0.543183 5 0.542028 5C0.540872 5 0.53974 5 0.538632 5C0.537523 5 0.536438 5 0.535376 5C0.534315 5 0.533276 5 0.532261 5C0.531247 5 0.530255 5 0.529287 5C0.52832 5 0.527375 5 0.526455 5C0.525534 5 0.524637 5 0.523764 5C0.522891 5 0.522041 5 0.521215 5C0.520389 5 0.519587 5 0.518809 5C0.518031 5 0.517276 5 0.516546 5C0.515815 5 0.515108 5 0.514426 5C0.513743 5 0.513084 5 0.512449 5C0.511814 5 0.511203 5 0.510617 5C0.51003 5 0.509467 5 0.508929 5C0.50839 5 0.507876 5 0.507385 5C0.506895 5 0.506429 5 0.505987 5C0.505546 5 0.505128 5 0.504735 5C0.504342 5 0.503973 5 0.503628 5C0.503284 5 0.502964 5 0.502668 5C0.502372 5 0.502101 5 0.501854 5C0.501608 5 0.501385 5 0.501188 5C0.50099 5 0.500817 5 0.500669 5C0.50052 5 0.500397 5 0.500297 5C0.500198 5 0.500124 5 0.500074 5C0.500025 5 0.5 5 0.5 5.5C0.5 6 0.500025 6 0.500074 6C0.500124 6 0.500198 6 0.500297 6C0.500397 6 0.50052 6 0.500669 6C0.500817 6 0.50099 6 0.501188 6C0.501385 6 0.501608 6 0.501854 6C0.502101 6 0.502372 6 0.502668 6C0.502964 6 0.503284 6 0.503628 6C0.503973 6 0.504342 6 0.504735 6C0.505128 6 0.505546 6 0.505987 6C0.506429 6 0.506895 6 0.507385 6C0.507876 6 0.50839 6 0.508929 6C0.509467 6 0.51003 6 0.510617 6C0.511203 6 0.511814 6 0.512449 6C0.513084 6 0.513743 6 0.514426 6C0.515108 6 0.515815 6 0.516546 6C0.517276 6 0.518031 6 0.518809 6C0.519587 6 0.520389 6 0.521215 6C0.522041 6 0.522891 6 0.523764 6C0.524637 6 0.525534 6 0.526455 6C0.527375 6 0.52832 6 0.529287 6C0.530255 6 0.531247 6 0.532261 6C0.533276 6 0.534315 6 0.535376 6C0.536438 6 0.537523 6 0.538632 6C0.53974 6 0.540872 6 0.542028 6C0.543183 6 0.544361 6 0.545563 6C0.546765 6 0.54799 6 0.549238 6C0.550486 6 0.551758 6 0.553052 6C0.554347 6 0.555664 6 0.557005 6C0.558346 6 0.559709 6 0.561096 6C0.562483 6 0.563892 6 0.565325 6C0.566758 6 0.568213 6 0.569692 6C0.57117 6 0.572671 6 0.574195 6C0.575719 6 0.577266 6 0.578836 6C0.580405 6 0.581998 6 0.583613 6C0.585228 6 0.586865 6 0.588525 6C0.590186 6 0.591869 6 0.593574 6C0.595279 6 0.597007 6 0.598758 6C0.600508 6 0.602281 6 0.604076 6C0.605872 6 0.60769 6 0.60953 6C0.61137 6 0.613232 6 0.615117 6C0.617002 6 0.618909 6 0.620838 6C0.622767 6 0.624719 6 0.626692 6C0.628666 6 0.630662 6 0.63268 6C0.634697 6 0.636737 6 0.638799 6C0.640861 6 0.642946 6 0.645052 6C0.647158 6 0.649286 6 0.651435 6C0.653585 6 0.655757 6 0.657951 6C0.660145 6 0.66236 6 0.664597 6C0.666835 6 0.669094 6 0.671374 6C0.673655 6 0.675958 6 0.678282 6C0.680606 6 0.682952 6 0.685319 6C0.687687 6 0.690076 6 0.692486 6C0.694897 6 0.697329 6 0.699782 6C0.702236 6 0.704711 6 0.707207 6C0.709703 6 0.712221 6 0.71476 6C0.717299 6 0.71986 6 0.722441 6C0.725023 6 0.727626 6 0.73025 6C0.732874 6 0.73552 6 0.738186 6C0.740853 6 0.743541 6 0.746249 6C0.748958 6 0.751688 6 0.754439 6C0.75719 6 0.759961 6 0.762754 6C0.765547 6 0.768361 6 0.771196 6C0.77403 6 0.776886 6 0.779762 6C0.782639 6 0.785536 6 0.788454 6C0.791372 6 0.794311 6 0.79727 6C0.80023 6 0.80321 6 0.80621 6C0.809211 6 0.812233 6 0.815275 6C0.818317 6 0.821379 6 0.824462 6C0.827545 6 0.830649 6 0.833773 6C0.836897 6 0.840042 6 0.843206 6C0.846371 6 0.849557 6 0.852762 6C0.855968 6 0.859194 6 0.86244 6C0.865686 6 0.868952 6 0.872239 6C0.875525 6 0.878832 6 0.882159 6C0.885486 6 0.888833 6 0.8922 6C0.895567 6 0.898954 6 0.902362 6C0.905769 6 0.909196 6 0.912643 6C0.91609 6 0.919557 6 0.923044 6C0.926531 6 0.930038 6 0.933564 6C0.937091 6 0.940637 6 0.944204 6C0.94777 6 0.951356 6 0.954961 6C0.958567 6 0.962192 6 0.965837 6C0.969482 6 0.973147 6 0.976831 6C0.980515 6 0.984218 6 0.987941 6C0.991665 6 0.995407 6 0.999169 6C1.00293 6 1.00671 6 1.01051 6C1.01431 6 1.01813 6 1.02197 6C1.02581 6 1.02967 6 1.03355 6C1.03743 6 1.04133 6 1.04524 6C1.04916 6 1.05309 6 1.05705 6C1.061 6 1.06498 6 1.06897 6C1.07296 6 1.07698 6 1.08101 6C1.08504 6 1.08909 6 1.09316 6C1.09723 6 1.10131 6 1.10542 6C1.10953 6 1.11365 6 1.1178 6C1.12194 6 1.1261 6 1.13029 6C1.13447 6 1.13867 6 1.14289 6C1.14711 6 1.15134 6 1.1556 6C1.15986 6 1.16413 6 1.16843 6C1.17272 6 1.17703 6 1.18136 6C1.18569 6 1.19004 6 1.19441 6C1.19878 6 1.20316 6 1.20757 6C1.21197 6 1.21639 6 1.22084 6C1.22528 6 1.22974 6 1.23421 6C1.23869 6 1.24319 6 1.2477 6C1.25221 6 1.25675 6 1.2613 6C1.26585 6 1.27041 6 1.275 6C1.27959 6 1.28419 6 1.28881 6C1.29343 6 1.29808 6 1.30273 6C1.30739 6 1.31207 6 1.31676 6C1.32145 6 1.32617 6 1.3309 6C1.33563 6 1.34037 6 1.34514 6C1.3499 6 1.35469 6 1.35949 6C1.36429 6 1.3691 6 1.37394 6C1.37877 6 1.38363 6 1.3885 6C1.39337 6 1.39826 6 1.40316 6C1.40807 6 1.41299 6 1.41793 6C1.42287 6 1.42783 6 1.43281 6C1.43778 6 1.44277 6 1.44778 6C1.45279 6 1.45782 6 1.46286 6C1.46791 6 1.47297 6 1.47805 6C1.48313 6 1.48822 6 1.49334 6C1.49845 6 1.50358 6 1.50873 6C1.51387 6 1.51904 6 1.52422 6C1.5294 6 1.5346 6 1.53981 6C1.54503 6 1.55026 6 1.55551 6C1.56076 6 1.56602 6 1.5713 6C1.57658 6 1.58188 6 1.5872 6C1.59251 6 1.59785 6 1.6032 6C1.60854 6 1.61391 6 1.61929 6C1.62467 6 1.63007 6 1.63549 6C1.6409 6 1.64633 6 1.65178 6C1.65723 6 1.6627 6 1.66818 6C1.67366 6 1.67915 6 1.68467 6C1.69018 6 1.69571 6 1.70126 6C1.7068 6 1.71237 6 1.71795 6C1.72352 6 1.72912 6 1.73473 6C1.74034 6 1.74597 6 1.75161 6C1.75725 6 1.76291 6 1.76859 6C1.77426 6 1.77995 6 1.78566 6C1.79137 6 1.79709 6 1.80283 6C1.80857 6 1.81432 6 1.8201 6C1.82587 6 1.83165 6 1.83745 6C1.84326 6 1.84907 6 1.85491 6C1.86074 6 1.86659 6 1.87246 6C1.87832 6 1.8842 6 1.8901 6C1.89599 6 1.90191 6 1.90783 6C1.91376 6 1.9197 6 1.92566 6C1.93162 6 1.93759 6 1.94358 6C1.94957 6 1.95557 6 1.96159 6C1.96761 6 1.97365 6 1.9797 6C1.98575 6 1.99181 6 1.99789 6C2.00397 6 2.01007 6 2.01618 6C2.02229 6 2.02842 6 2.03456 6C2.0407 6 2.04685 6 2.05303 6C2.0592 6 2.06538 6 2.07158 6C2.07778 6 2.084 6 2.09023 6C2.09646 6 2.10271 6 2.10897 6C2.11523 6 2.1215 6 2.12779 6C2.13408 6 2.14039 6 2.1467 6C2.15302 6 2.15936 6 2.16571 6C2.17205 6 2.17842 6 2.18479 6C2.19117 6 2.19756 6 2.20397 6C2.21038 6 2.2168 6 2.22323 6C2.22967 6 2.23612 6 2.24258 6C2.24905 6 2.25553 6 2.26202 6C2.26851 6 2.27502 6 2.28154 6C2.28806 6 2.2946 6 2.30115 6C2.3077 6 2.31426 6 2.32084 6C2.32742 6 2.33401 6 2.34061 6C2.34722 6 2.35384 6 2.36047 6C2.36711 6 2.37376 6 2.38042 6C2.38708 6 2.39376 6 2.40045 6C2.40714 6 2.41384 6 2.42056 6C2.42727 6 2.43401 6 2.44075 6C2.44749 6 2.45425 6 2.46103 6C2.4678 6 2.47458 6 2.48138 6C2.48818 6 2.495 6 2.50182 6C2.50865 6 2.51549 6 2.52234 6C2.5292 6 2.53606 6 2.54294 6C2.54982 6 2.55672 6 2.56362 6C2.57053 6 2.57745 6 2.58438 6C2.59132 6 2.59827 6 2.60523 6C2.61219 6 2.61916 6 2.62615 6C2.63313 6 2.64013 6 2.64714 6C2.65416 6 2.66118 6 2.66822 6C2.67526 6 2.68231 6 2.68938 6C2.69644 6 2.70352 6 2.71061 6C2.7177 6 2.7248 6 2.73192 6C2.73904 6 2.74617 6 2.75331 6C2.76045 6 2.7676 6 2.77477 6C2.78194 6 2.78912 6 2.79631 6C2.8035 6 2.81071 6 2.81793 6C2.82514 6 2.83237 6 2.83962 6C2.84686 6 2.85412 6 2.86138 6C2.86865 6 2.87593 6 2.88322 6C2.89052 6 2.89782 6 2.90514 6C2.91246 6 2.91979 6 2.92713 6C2.93447 6 2.94182 6 2.94919 6C2.95656 6 2.96394 6 2.97133 6C2.97872 6 2.98612 6 2.99354 6C3.00095 6 3.00838 6 3.01582 6C3.02325 6 3.03071 6 3.03817 6C3.04563 6 3.05311 6 3.06059 6C3.06808 6 3.07558 6 3.08309 6C3.0906 6 3.09812 6 3.10565 6C3.11319 6 3.12073 6 3.12829 6C3.13585 6 3.14342 6 3.151 6C3.15858 6 3.16617 6 3.17377 6C3.18138 6 3.18899 6 3.19662 6C3.20425 6 3.21189 6 3.21954 6C3.22719 6 3.23485 6 3.24252 6C3.25019 6 3.25788 6 3.26557 6C3.27327 6 3.28097 6 3.28869 6C3.29641 6 3.30414 6 3.31188 6C3.31962 6 3.32737 6 3.33513 6C3.34289 6 3.35067 6 3.35845 6C3.36624 6 3.37403 6 3.38184 6C3.38964 6 3.39746 6 3.40529 6C3.41312 6 3.42096 6 3.42881 6C3.43666 6 3.44452 6 3.45239 6C3.46026 6 3.46815 6 3.47604 6C3.48393 6 3.49184 6 3.49975 6C3.50767 6 3.51559 6 3.52353 6C3.53146 6 3.53941 6 3.54737 6C3.55532 6 3.56329 6 3.57127 6C3.57925 6 3.58724 6 3.59524 6C3.60324 6 3.61124 6 3.61926 6C3.62728 6 3.63531 6 3.64335 6C3.6514 6 3.65945 6 3.66751 6C3.67557 6 3.68364 6 3.69172 6C3.6998 6 3.70789 6 3.71599 6C3.7241 6 3.73221 6 3.74033 6C3.74845 6 3.75658 6 3.76472 6C3.77287 6 3.78102 6 3.78918 6C3.79734 6 3.80551 6 3.81369 6C3.82187 6 3.83007 6 3.83827 6C3.84647 6 3.85468 6 3.8629 6C3.87112 6 3.87935 6 3.88759 6C3.89583 6 3.90408 6 3.91234 6C3.9206 6 3.92886 6 3.93714 6C3.94542 6 3.95371 6 3.962 6C3.9703 6 3.97861 6 3.98692 6C3.99524 6 4.00356 6 4.0119 6C4.02023 6 4.02858 6 4.03693 6C4.04528 6 4.05365 6 4.06202 6C4.07039 6 4.07877 6 4.08716 6C4.09555 6 4.10395 6 4.11236 6C4.12077 6 4.12918 6 4.13761 6C4.14604 6 4.15447 6 4.16292 6C4.17136 6 4.17981 6 4.18827 6C4.19674 6 4.20521 6 4.21369 6C4.22217 6 4.23066 6 4.23915 6C4.24765 6 4.25616 6 4.26467 6C4.27319 6 4.28171 6 4.29024 6C4.29877 6 4.30731 6 4.31586 6C4.32441 6 4.33297 6 4.34154 6C4.3501 6 4.35868 6 4.36726 6C4.37585 6 4.38444 6 4.39304 6C4.40164 6 4.41025 6 4.41886 6C4.42748 6 4.4361 6 4.44474 6C4.45337 6 4.46201 6 4.47066 6C4.47931 6 4.48797 6 4.49664 6C4.5053 6 4.51398 6 4.52266 6C4.53134 6 4.54003 6 4.54873 6C4.55743 6 4.56613 6 4.57485 6C4.58356 6 4.59229 6 4.60102 6C4.60975 6 4.61848 6 4.62723 6C4.63598 6 4.64473 6 4.65349 6C4.66225 6 4.67102 6 4.6798 6C4.68857 6 4.69736 6 4.70615 6C4.71494 6 4.72374 6 4.73255 6C4.74136 6 4.75017 6 4.75899 6C4.76782 6 4.77664 6 4.78548 6C4.79432 6 4.80316 6 4.81202 6C4.82087 6 4.82973 6 4.83859 6C4.84746 6 4.85633 6 4.86521 6C4.8741 6 4.88298 6 4.89188 6C4.90077 6 4.90968 6 4.91859 6C4.9275 6 4.93641 6 4.94534 6C4.95426 6 4.96319 6 4.97213 6C4.98107 6 4.99001 6 4.99896 6C5.00792 6 5.01688 6 5.02584 6C5.03481 6 5.04378 6 5.05276 6C5.06174 6 5.07072 6 5.07972 6C5.08871 6 5.09771 6 5.10671 6C5.11572 6 5.12473 6 5.13375 6C5.14277 6 5.1518 6 5.16083 6C5.16986 6 5.1789 6 5.18795 6C5.19699 6 5.20604 6 5.2151 6C5.22416 6 5.23323 6 5.2423 6C5.25137 6 5.26045 6 5.26953 6C5.27861 6 5.2877 6 5.2968 6C5.3059 6 5.315 6 5.32411 6C5.33321 6 5.34233 6 5.35145 6C5.36057 6 5.3697 6 5.37883 6C5.38796 6 5.3971 6 5.40625 6C5.41539 6 5.42454 6 5.4337 6C5.44286 6 5.45202 6 5.46119 6C5.47036 6 5.47953 6 5.48871 6C5.49789 6 5.50708 6 5.51627 6C5.52546 6 5.53466 6 5.54386 6C5.55306 6 5.56227 6 5.57149 6C5.5807 6 5.58992 6 5.59915 6C5.60837 6 5.6176 6 5.62684 6C5.63607 6 5.64532 6 5.65456 6C5.66381 6 5.67306 6 5.68232 6C5.69158 6 5.70084 6 5.71011 6C5.71938 6 5.72865 6 5.73793 6C5.74721 6 5.75649 6 5.76578 6C5.77507 6 5.78437 6 5.79366 6C5.80296 6 5.81227 6 5.82158 6C5.83089 6 5.8402 6 5.84952 6C5.85884 6 5.86817 6 5.87749 6C5.88682 6 5.89616 6 5.9055 6C5.91484 6 5.92418 6 5.93353 6C5.94288 6 5.95223 6 5.96159 6C5.97095 6 5.98031 6 5.98968 6C5.99904 6 6.00841 6 6.01779 6C6.02717 6 6.03655 6 6.04593 6C6.05532 6 6.06471 6 6.0741 6C6.0835 6 6.0929 6 6.1023 6C6.1117 6 6.12111 6 6.13052 6C6.13994 6 6.14935 6 6.15877 6C6.16819 6 6.17762 6 6.18705 6C6.19648 6 6.20591 6 6.21535 6C6.22478 6 6.23422 6 6.24367 6C6.25312 6 6.26257 6 6.27202 6C6.28147 6 6.29093 6 6.30039 6C6.30985 6 6.31932 6 6.32879 6C6.33826 6 6.34773 6 6.35721 6C6.36668 6 6.37616 6 6.38565 6C6.39513 6 6.40462 6 6.41411 6C6.4236 6 6.4331 6 6.4426 6C6.4521 6 6.4616 6 6.47111 6C6.48061 6 6.49012 6 6.49964 6C6.50915 6 6.51867 6 6.52819 6C6.53771 6 6.54723 6 6.55676 6C6.56628 6 6.57581 6 6.58535 6C6.59488 6 6.60442 6 6.61396 6C6.6235 6 6.63304 6 6.64259 6C6.65213 6 6.66168 6 6.67124 6C6.68079 6 6.69035 6 6.6999 6C6.70946 6 6.71903 6 6.72859 6C6.73815 6 6.74772 6 6.75729 6C6.76686 6 6.77644 6 6.78601 6C6.79559 6 6.80517 6 6.81475 6C6.82434 6 6.83392 6 6.84351 6C6.8531 6 6.86269 6 6.87228 6C6.88187 6 6.89147 6 6.90107 6C6.91066 6 6.92027 6 6.92987 6C6.93947 6 6.94908 6 6.95869 6C6.9683 6 6.97791 6 6.98752 6C6.99713 6 7.00675 6 7.01637 6C7.02598 6 7.03561 6 7.04523 6C7.05485 6 7.06448 6 7.0741 6C7.08373 6 7.09336 6 7.10299 6C7.11262 6 7.12226 6 7.13189 6C7.14153 6 7.15117 6 7.16081 6C7.17045 6 7.18009 6 7.18973 6C7.19938 6 7.20902 6 7.21867 6C7.22832 6 7.23797 6 7.24762 6C7.25727 6 7.26692 6 7.27658 6C7.28623 6 7.29589 6 7.30555 6C7.31521 6 7.32487 6 7.33453 6C7.34419 6 7.35385 6 7.36352 6C7.37318 6 7.38285 6 7.39252 6C7.40219 6 7.41186 6 7.42153 6C7.4312 6 7.44087 6 7.45055 6C7.46022 6 7.46989 6 7.47957 6C7.48925 6 7.49893 6 7.50861 6C7.51829 6 7.52797 6 7.53765 6C7.54733 6 7.55701 6 7.5667 6C7.57638 6 7.58607 6 7.59575 6C7.60544 6 7.61513 6 7.62481 6C7.6345 6 7.64419 6 7.65388 6C7.66357 6 7.67326 6 7.68296 6C7.69265 6 7.70234 6 7.71203 6C7.72173 6 7.73142 6 7.74112 6C7.75081 6 7.76051 6 7.77021 6C7.7799 6 7.7896 6 7.7993 6C7.809 6 7.8187 6 7.82839 6C7.83809 6 7.84779 6 7.85749 6C7.86719 6 7.8769 6 7.8866 6C7.8963 6 7.906 6 7.9157 6C7.9254 6 7.93511 6 7.94481 6C7.95451 6 7.96422 6 7.97392 6C7.98362 6 7.99333 6 8.00303 6C8.01273 6 8.02244 6 8.03214 6C8.04185 6 8.05155 6 8.06125 6C8.07096 6 8.08066 6 8.09037 6C8.10007 6 8.10978 6 8.11948 6C8.12918 6 8.13889 6 8.14859 6C8.1583 6 8.168 6 8.1777 6C8.18741 6 8.19711 6 8.20681 6C8.21652 6 8.22622 6 8.23592 6C8.24562 6 8.25533 6 8.26503 6C8.27473 6 8.28443 6 8.29413 6C8.30383 6 8.31353 6 8.32323 6C8.33293 6 8.34263 6 8.35233 6C8.36203 6 8.37173 6 8.38143 6C8.39113 6 8.40082 6 8.41052 6C8.42022 6 8.42991 6 8.43961 6C8.4493 6 8.45899 6 8.46869 6C8.47838 6 8.48807 6 8.49777 6C8.50746 6 8.51715 6 8.52684 6C8.53653 6 8.54622 6 8.5559 6C8.56559 6 8.57528 6 8.58496 6C8.59465 6 8.60433 6 8.61402 6C8.6237 6 8.63338 6 8.64306 6C8.65274 6 8.66242 6 8.6721 6C8.68178 6 8.69146 6 8.70113 6C8.71081 6 8.72048 6 8.73016 6C8.73983 6 8.7495 6 8.75917 6C8.76884 6 8.77851 6 8.78818 6C8.79784 6 8.80751 6 8.81717 6C8.82684 6 8.8365 6 8.84616 6C8.85582 6 8.86548 6 8.87514 6C8.8848 6 8.89445 6 8.90411 6C8.91376 6 8.92341 6 8.93306 6C8.94271 6 8.95236 6 8.96201 6C8.97165 6 8.9813 6 8.99094 6C9.00058 6 9.01022 6 9.01986 6C9.0295 6 9.03914 6 9.04877 6C9.05841 6 9.06804 6 9.07767 6C9.0873 6 9.09693 6 9.10655 6C9.11618 6 9.1258 6 9.13542 6C9.14504 6 9.15466 6 9.16428 6C9.17389 6 9.18351 6 9.19312 6C9.20273 6 9.21234 6 9.22195 6C9.23156 6 9.24116 6 9.25076 6C9.26036 6 9.26996 6 9.27956 6C9.28916 6 9.29875 6 9.30834 6C9.31793 6 9.32752 6 9.33711 6C9.34669 6 9.35628 6 9.36586 6C9.37544 6 9.38501 6 9.39459 6C9.40416 6 9.41374 6 9.4233 6C9.43287 6 9.44244 6 9.452 6C9.46157 6 9.47112 6 9.48068 6C9.49024 6 9.49979 6 9.50934 6C9.51889 6 9.52844 6 9.53799 6C9.54753 6 9.55707 6 9.56661 6C9.57615 6 9.58568 6 9.59521 6C9.60474 6 9.61427 6 9.6238 6C9.63332 6 9.64284 6 9.65236 6C9.66188 6 9.67139 6 9.6809 6C9.69042 6 9.69992 6 9.70943 6C9.71893 6 9.72843 6 9.73793 6C9.74742 6 9.75692 6 9.76641 6C9.7759 6 9.78538 6 9.79486 6C9.80435 6 9.81382 6 9.8233 6C9.83277 6 9.84224 6 9.85171 6C9.86117 6 9.87064 6 9.8801 6C9.88955 6 9.89901 6 9.90846 6C9.91791 6 9.92736 6 9.9368 6C9.94624 6 9.95568 6 9.96512 6C9.97455 6 9.98398 6 9.99341 6C10.0028 6 10.0123 6 10.0217 6C10.0311 6 10.0405 6 10.0499 6C10.0593 6 10.0687 6 10.0781 6C10.0875 6 10.0969 6 10.1063 6C10.1157 6 10.1251 6 10.1345 6C10.1439 6 10.1532 6 10.1626 6C10.172 6 10.1814 6 10.1907 6C10.2001 6 10.2094 6 10.2188 6C10.2281 6 10.2375 6 10.2468 6C10.2562 6 10.2655 6 10.2749 6C10.2842 6 10.2935 6 10.3029 6C10.3122 6 10.3215 6 10.3308 6C10.3401 6 10.3494 6 10.3588 6C10.3681 6 10.3774 6 10.3867 6C10.396 6 10.4052 6 10.4145 6C10.4238 6 10.4331 6 10.4424 6C10.4516 6 10.4609 6 10.4702 6C10.4794 6 10.4887 6 10.498 6C10.5072 6 10.5165 6 10.5257 6C10.535 6 10.5442 6 10.5534 6C10.5627 6 10.5719 6 10.5811 6C10.5903 6 10.5995 6 10.6088 6C10.618 6 10.6272 6 10.6364 6C10.6456 6 10.6548 6 10.6639 6C10.6731 6 10.6823 6 10.6915 6C10.7007 6 10.7098 6 10.719 6C10.7282 6 10.7373 6 10.7465 6C10.7556 6 10.7648 6 10.7739 6C10.7831 6 10.7922 6 10.8013 6C10.8105 6 10.8196 6 10.8287 6C10.8378 6 10.8469 6 10.856 6C10.8651 6 10.8742 6 10.8833 6C10.8924 6 10.9015 6 10.9106 6C10.9197 6 10.9287 6 10.9378 6C10.9469 6 10.9559 6 10.965 6C10.974 6 10.9831 6 10.9921 6C11.0012 6 11.0102 6 11.0192 6C11.0283 6 11.0373 6 11.0463 6C11.0553 6 11.0643 6 11.0733 6C11.0823 6 11.0913 6 11.1003 6C11.1093 6 11.1183 6 11.1272 6C11.1362 6 11.1452 6 11.1541 6C11.1631 6 11.1721 6 11.181 6C11.19 6 11.1989 6 11.2078 6C11.2168 6 11.2257 6 11.2346 6C11.2435 6 11.2524 6 11.2613 6C11.2702 6 11.2791 6 11.288 6C11.2969 6 11.3058 6 11.3147 6C11.3236 6 11.3324 6 11.3413 6C11.3502 6 11.359 6 11.3679 6C11.3767 6 11.3855 6 11.3944 6C11.4032 6 11.412 6 11.4208 6C11.4297 6 11.4385 6 11.4473 6C11.4561 6 11.4649 6 11.4737 6C11.4824 6 11.4912 6 11.5 6V5ZM0.853553 5.85355L5.85355 0.853553L5.14645 0.146447L0.146447 5.14645L0.853553 5.85355ZM0.146447 5.85355L5.14645 10.8536L5.85355 10.1464L0.853553 5.14645L0.146447 5.85355Z" fill="white"/>
</svg>
