<svg width="22" height="21" viewBox="0 0 22 21" fill="none" xmlns="http://www.w3.org/2000/svg">
<path d="M11.0001 -0.000976562C16.5238 -0.000976562 21.0016 4.47687 21.0016 10.0006C21.0016 15.5243 16.5238 20.0021 11.0001 20.0021C5.47638 20.0021 0.998535 15.5243 0.998535 10.0006C0.998535 4.47687 5.47638 -0.000976562 11.0001 -0.000976562ZM11.0001 1.49902C6.30481 1.49902 2.49854 5.3053 2.49854 10.0006C2.49854 14.6959 6.30481 18.5021 11.0001 18.5021C15.6954 18.5021 19.5016 14.6959 19.5016 10.0006C19.5016 5.3053 15.6954 1.49902 11.0001 1.49902ZM7.46183 12.7839C8.31096 13.8616 9.60198 14.5021 11.0001 14.5021C12.3963 14.5021 13.6858 13.8633 14.535 12.7881C14.7918 12.463 15.2634 12.4076 15.5884 12.6644C15.9135 12.9211 15.9689 13.3927 15.7122 13.7178C14.5814 15.1495 12.8602 16.0021 11.0001 16.0021C9.13743 16.0021 7.4142 15.1472 6.2836 13.7122C6.02725 13.3869 6.08319 12.9153 6.40855 12.6589C6.73391 12.4026 7.20548 12.4585 7.46183 12.7839ZM8.00053 6.75121C8.6905 6.75121 9.24982 7.31054 9.24982 8.0005C9.24982 8.69047 8.6905 9.24979 8.00053 9.24979C7.31057 9.24979 6.75124 8.69047 6.75124 8.0005C6.75124 7.31054 7.31057 6.75121 8.00053 6.75121ZM14.0005 6.75121C14.6905 6.75121 15.2498 7.31054 15.2498 8.0005C15.2498 8.69047 14.6905 9.24979 14.0005 9.24979C13.3106 9.24979 12.7512 8.69047 12.7512 8.0005C12.7512 7.31054 13.3106 6.75121 14.0005 6.75121Z" fill="#8A8A8A"/>
</svg>
