<svg width="16" height="15" viewBox="0 0 16 15" fill="none" xmlns="http://www.w3.org/2000/svg">
<path d="M8.48086 10.8423H13.4C14.2962 10.8423 15 10.1288 15 9.27643V2.56582C15 1.71348 14.2962 1 13.4 1H2.6C1.70383 1 1 1.71348 1 2.56582V9.27643C1 10.1288 1.70383 10.8423 2.6 10.8423H4.19908L4.2 14L4.20346 13.9997L4.20502 13.9988L8.48086 10.8423ZM4.79895 14.8034C4.35668 15.1298 3.73 15.0406 3.39921 14.6042C3.26989 14.4335 3.2 14.2262 3.2 14.0133L3.19937 11.8423H2.6C1.16406 11.8423 0 10.6935 0 9.27643V2.56582C0 1.14876 1.16406 0 2.6 0H13.4C14.8359 0 16 1.14876 16 2.56582V9.27643C16 10.6935 14.8359 11.8423 13.4 11.8423H8.80999L4.79895 14.8034Z" fill="white"/>
<path fill-rule="evenodd" clip-rule="evenodd" d="M8 2.5C8.27614 2.5 8.5 2.72386 8.5 3V9C8.5 9.27614 8.27614 9.5 8 9.5C7.72386 9.5 7.5 9.27614 7.5 9V3C7.5 2.72386 7.72386 2.5 8 2.5ZM5 3.5C5.27614 3.5 5.5 3.72386 5.5 4V8C5.5 8.27614 5.27614 8.5 5 8.5C4.72386 8.5 4.5 8.27614 4.5 8V4C4.5 3.72386 4.72386 3.5 5 3.5ZM11 4C11.2761 4 11.5 4.22386 11.5 4.5V7.5C11.5 7.77614 11.2761 8 11 8C10.7239 8 10.5 7.77614 10.5 7.5V4.5C10.5 4.22386 10.7239 4 11 4Z" fill="white"/>
</svg>
