<svg width="21" height="22" viewBox="0 0 21 22" fill="none" xmlns="http://www.w3.org/2000/svg">
<path d="M9.77169 2.74346C12.1132 0.399876 15.9121 0.399876 18.2553 2.74302C20.5384 5.02609 20.5969 8.6913 18.4309 11.0452L18.2428 11.2426L9.44273 20.0408L9.40616 20.071C7.94492 21.3878 5.69092 21.3431 4.28355 19.9357C2.96453 18.6167 2.84241 16.554 3.9172 15.0973C3.94054 15.0519 3.96879 15.0082 4.002 14.967L4.05556 14.9074L4.14247 14.8197L4.28355 14.6718L4.28647 14.6747L11.7222 7.22035C11.9881 6.95373 12.4047 6.92897 12.6986 7.14643L12.7829 7.21894C13.0495 7.48485 13.0742 7.90148 12.8568 8.19538L12.7843 8.2796L5.18966 15.8927C4.47202 16.7683 4.5219 18.0626 5.3393 18.88C6.16836 19.709 7.48801 19.7485 8.3638 18.9984L17.1965 10.1679C18.952 8.41028 18.952 5.56104 17.1946 3.80368C15.4922 2.10124 12.765 2.04804 10.9986 3.64408L10.8307 3.80368L10.8181 3.81799L1.28179 13.3543C0.988902 13.6472 0.514028 13.6472 0.221135 13.3543C-0.0451319 13.0881 -0.0693378 12.6714 0.148517 12.3778L0.221135 12.2937L9.77001 2.74302L9.77169 2.74346Z" fill="#8A8A8A"/>
</svg>
